<svg xmlns="http://www.w3.org/2000/svg" xmlns:xlink="http://www.w3.org/1999/xlink" version="1.1" width="256" height="256" viewBox="0 0 256 256" xml:space="preserve">

<defs>
</defs>
<g style="stroke: none; stroke-width: 0; stroke-dasharray: none; stroke-linecap: butt; stroke-linejoin: miter; stroke-miterlimit: 10; fill: none; fill-rule: nonzero; opacity: 1;" transform="translate(1.4065934065934016 1.4065934065934016) scale(2.81 2.81)" >
	<polygon points="73.7,56.89 89,45 73.7,33.11 76.11,13.89 56.89,16.3 45,1 33.11,16.3 13.89,13.89 16.3,33.11 1,45 16.3,56.89 13.89,76.11 33.11,73.7 45,89 56.89,73.7 76.11,76.11 " style="stroke: none; stroke-width: 1; stroke-dasharray: none; stroke-linecap: butt; stroke-linejoin: miter; stroke-miterlimit: 10; fill: rgb(255,188,0); fill-rule: nonzero; opacity: 1;" transform="  matrix(1 0 0 1 0 0) "/>
	<circle cx="44.998999999999995" cy="44.998999999999995" r="23.159" style="stroke: none; stroke-width: 1; stroke-dasharray: none; stroke-linecap: butt; stroke-linejoin: miter; stroke-miterlimit: 10; fill: rgb(255,103,0); fill-rule: nonzero; opacity: 1;" transform="  matrix(1 0 0 1 0 0) "/>
	<path d="M 45 90 c -0.309 0 -0.6 -0.143 -0.79 -0.387 L 32.673 74.761 l -18.661 2.344 c -0.308 0.033 -0.614 -0.067 -0.832 -0.285 c -0.218 -0.219 -0.324 -0.525 -0.285 -0.832 l 2.345 -18.66 L 0.387 45.79 C 0.143 45.6 0 45.309 0 45 s 0.143 -0.6 0.387 -0.79 L 15.24 32.673 l -2.345 -18.661 c -0.039 -0.306 0.067 -0.613 0.285 -0.832 c 0.218 -0.219 0.524 -0.327 0.832 -0.285 l 18.661 2.345 L 44.21 0.387 c 0.379 -0.488 1.2 -0.488 1.579 0 L 57.327 15.24 l 18.66 -2.345 c 0.31 -0.042 0.614 0.067 0.832 0.285 c 0.219 0.218 0.323 0.525 0.285 0.832 l -2.344 18.661 L 89.613 44.21 C 89.857 44.4 90 44.691 90 45 s -0.143 0.6 -0.387 0.79 L 74.761 57.327 l 2.344 18.66 c 0.038 0.307 -0.066 0.613 -0.285 0.832 c -0.218 0.218 -0.52 0.322 -0.832 0.285 l -18.66 -2.344 L 45.79 89.613 C 45.6 89.857 45.309 90 45 90 z M 33.113 72.697 c 0.307 0 0.599 0.141 0.79 0.387 L 45 87.37 l 11.097 -14.286 c 0.217 -0.279 0.559 -0.424 0.915 -0.379 L 74.96 74.96 l -2.255 -17.948 c -0.044 -0.351 0.1 -0.698 0.379 -0.915 L 87.37 45 L 73.084 33.903 c -0.279 -0.216 -0.423 -0.564 -0.379 -0.914 L 74.96 15.04 l -17.948 2.255 c -0.356 0.042 -0.698 -0.101 -0.915 -0.379 L 45 2.63 L 33.903 16.916 c -0.216 0.279 -0.566 0.426 -0.914 0.379 L 15.04 15.04 l 2.255 17.949 c 0.044 0.35 -0.1 0.698 -0.379 0.914 L 2.63 45 l 14.286 11.097 c 0.279 0.217 0.423 0.564 0.379 0.915 L 15.04 74.96 l 17.949 -2.255 C 33.03 72.7 33.072 72.697 33.113 72.697 z" style="stroke: none; stroke-width: 1; stroke-dasharray: none; stroke-linecap: butt; stroke-linejoin: miter; stroke-miterlimit: 10; fill: rgb(0,0,0); fill-rule: nonzero; opacity: 1;" transform=" matrix(1 0 0 1 0 0) " stroke-linecap="round" />
	<path d="M 45 69.159 c -13.321 0 -24.159 -10.838 -24.159 -24.159 S 31.679 20.841 45 20.841 S 69.159 31.679 69.159 45 S 58.321 69.159 45 69.159 z M 45 22.841 c -12.219 0 -22.159 9.94 -22.159 22.159 S 32.781 67.159 45 67.159 S 67.159 57.219 67.159 45 S 57.219 22.841 45 22.841 z" style="stroke: none; stroke-width: 1; stroke-dasharray: none; stroke-linecap: butt; stroke-linejoin: miter; stroke-miterlimit: 10; fill: rgb(0,0,0); fill-rule: nonzero; opacity: 1;" transform=" matrix(1 0 0 1 0 0) " stroke-linecap="round" />
</g>
</svg>